<svg width="106" height="81" viewBox="0 0 106 81" fill="none" xmlns="http://www.w3.org/2000/svg">
<path d="M29.5958 80.3975L16.7173 67.519C11.4692 62.271 8.67258 57.4257 8.32731 52.9833C7.95903 48.5639 9.99611 44.133 14.4385 39.6905C17.3618 36.7673 20.4462 34.9489 23.6917 34.2353C26.9142 33.5448 29.8259 34.0857 32.4269 35.8581L32.7722 35.5128C30.6316 31.945 29.9065 28.5499 30.597 25.3274C31.2876 22.1049 33.2556 18.8709 36.5011 15.6254C41.0816 11.0449 45.9039 8.68555 50.9678 8.54744C55.9857 8.40933 60.6238 10.4694 64.882 14.7277L80.0738 29.9195L29.5958 80.3975ZM41.0586 51.257L36.7428 46.9411C34.7633 44.9616 32.8413 44.0984 30.9768 44.3516C29.1124 44.6048 27.1329 45.7787 25.0382 47.8733C22.9436 49.968 21.9078 51.9245 21.9308 53.7429C21.9308 55.5843 22.9206 57.4948 24.9001 59.4743L28.8707 63.4449L41.0586 51.257ZM48.8962 43.4194L63.0176 29.298L58.2874 24.5678C56.3309 22.6113 54.2823 21.7597 52.1417 22.0129C49.978 22.243 47.6417 23.6126 45.1328 26.1215C40.6213 30.633 40.3451 34.8683 44.3041 38.8274L48.8962 43.4194Z" fill="black"/>
<line x1="75.7574" y1="76.2621" x2="101.072" y2="50.9476" stroke="black" stroke-width="12"/>
<line x1="50.7574" y1="76.234" x2="88.5876" y2="38.4038" stroke="black" stroke-width="12"/>
</svg>
