<svg width="379" height="93" viewBox="0 0 379 93" fill="none" xmlns="http://www.w3.org/2000/svg">
<path d="M118.521 24.0293H134.073C140.727 24.0293 145.763 24.9635 149.181 26.832C152.599 28.7005 154.308 31.9818 154.308 36.6758C154.308 38.5671 154 40.276 153.385 41.8027C152.792 43.3294 151.926 44.5827 150.787 45.5625C149.648 46.5423 148.258 47.1803 146.617 47.4766V47.8184C148.281 48.1602 149.785 48.7526 151.129 49.5957C152.473 50.416 153.544 51.6237 154.342 53.2188C155.162 54.791 155.572 56.8874 155.572 59.5078C155.572 62.5384 154.832 65.1361 153.351 67.3008C151.869 69.4655 149.75 71.1289 146.993 72.291C144.259 73.4303 141 74 137.218 74H118.521V24.0293ZM129.117 43.8193H135.27C138.346 43.8193 140.476 43.3408 141.661 42.3838C142.846 41.404 143.438 39.9684 143.438 38.0771C143.438 36.1631 142.732 34.7959 141.319 33.9756C139.929 33.1325 137.719 32.7109 134.688 32.7109H129.117V43.8193ZM129.117 52.2275V65.25H136.021C139.212 65.25 141.433 64.6348 142.687 63.4043C143.94 62.1738 144.566 60.5218 144.566 58.4482C144.566 57.2178 144.293 56.1354 143.746 55.2012C143.199 54.2669 142.276 53.5378 140.978 53.0137C139.701 52.4896 137.936 52.2275 135.68 52.2275H129.117ZM185.561 35.0693C186.085 35.0693 186.688 35.1035 187.372 35.1719C188.078 35.2174 188.648 35.2858 189.081 35.377L188.295 45.1523C187.953 45.0384 187.463 44.9587 186.825 44.9131C186.21 44.8447 185.674 44.8105 185.219 44.8105C183.874 44.8105 182.564 44.9814 181.288 45.3232C180.035 45.665 178.907 46.2233 177.904 46.998C176.902 47.75 176.104 48.7526 175.512 50.0059C174.942 51.2363 174.657 52.7516 174.657 54.5518V74H164.232V35.7871H172.128L173.666 42.2129H174.179C174.931 40.9141 175.865 39.7292 176.981 38.6582C178.121 37.5645 179.408 36.6986 180.844 36.0605C182.302 35.3997 183.874 35.0693 185.561 35.0693ZM205.944 35.7871V74H195.52V35.7871H205.944ZM200.749 20.8164C202.299 20.8164 203.632 21.181 204.748 21.9102C205.865 22.6165 206.423 23.9495 206.423 25.9092C206.423 27.846 205.865 29.1904 204.748 29.9424C203.632 30.6715 202.299 31.0361 200.749 31.0361C199.177 31.0361 197.832 30.6715 196.716 29.9424C195.622 29.1904 195.075 27.846 195.075 25.9092C195.075 23.9495 195.622 22.6165 196.716 21.9102C197.832 21.181 199.177 20.8164 200.749 20.8164ZM243.008 74H212.827V67.8477L230.532 43.751H213.887V35.7871H242.393V42.5547L225.166 66.0361H243.008V74ZM284.822 54.8252C284.822 58.0153 284.389 60.8408 283.523 63.3018C282.68 65.7627 281.438 67.8477 279.798 69.5566C278.18 71.2428 276.22 72.5189 273.919 73.3848C271.64 74.2507 269.065 74.6836 266.194 74.6836C263.506 74.6836 261.033 74.2507 258.777 73.3848C256.544 72.5189 254.596 71.2428 252.933 69.5566C251.292 67.8477 250.016 65.7627 249.104 63.3018C248.216 60.8408 247.771 58.0153 247.771 54.8252C247.771 50.5869 248.523 46.998 250.027 44.0586C251.531 41.1191 253.673 38.8861 256.453 37.3594C259.233 35.8327 262.549 35.0693 266.399 35.0693C269.977 35.0693 273.144 35.8327 275.901 37.3594C278.681 38.8861 280.857 41.1191 282.43 44.0586C284.025 46.998 284.822 50.5869 284.822 54.8252ZM258.401 54.8252C258.401 57.3317 258.675 59.4395 259.222 61.1484C259.769 62.8574 260.623 64.1449 261.785 65.0107C262.947 65.8766 264.463 66.3096 266.331 66.3096C268.177 66.3096 269.669 65.8766 270.809 65.0107C271.971 64.1449 272.814 62.8574 273.338 61.1484C273.885 59.4395 274.158 57.3317 274.158 54.8252C274.158 52.2959 273.885 50.1995 273.338 48.5361C272.814 46.8499 271.971 45.5853 270.809 44.7422C269.646 43.8991 268.131 43.4775 266.263 43.4775C263.506 43.4775 261.5 44.4232 260.247 46.3145C259.017 48.2057 258.401 51.0426 258.401 54.8252ZM314.64 35.0693C318.718 35.0693 322 36.1859 324.483 38.4189C326.967 40.6292 328.209 44.1839 328.209 49.083V74H317.784V51.6807C317.784 48.9463 317.283 46.8841 316.28 45.4941C315.3 44.1042 313.751 43.4092 311.632 43.4092C308.442 43.4092 306.266 44.4915 305.104 46.6562C303.941 48.821 303.36 51.9427 303.36 56.0215V74H292.936V35.7871H300.899L302.301 40.6748H302.882C303.702 39.3532 304.716 38.2822 305.924 37.4619C307.154 36.6416 308.51 36.0378 309.991 35.6504C311.495 35.263 313.045 35.0693 314.64 35.0693ZM365.102 62.6523C365.102 65.25 364.486 67.4489 363.256 69.249C362.048 71.0264 360.237 72.3822 357.821 73.3164C355.406 74.2279 352.398 74.6836 348.798 74.6836C346.132 74.6836 343.842 74.5127 341.928 74.1709C340.036 73.8291 338.122 73.2594 336.186 72.4619V63.8486C338.259 64.7829 340.481 65.5576 342.851 66.1729C345.243 66.7653 347.34 67.0615 349.14 67.0615C351.168 67.0615 352.615 66.7653 353.48 66.1729C354.369 65.5576 354.813 64.7601 354.813 63.7803C354.813 63.1423 354.631 62.5726 354.267 62.0713C353.925 61.5472 353.173 60.9661 352.011 60.3281C350.849 59.6673 349.026 58.8128 346.542 57.7646C344.149 56.762 342.178 55.748 340.629 54.7227C339.102 53.6973 337.963 52.4896 337.211 51.0996C336.482 49.6868 336.117 47.8981 336.117 45.7334C336.117 42.2015 337.484 39.5469 340.219 37.7695C342.976 35.9694 346.656 35.0693 351.259 35.0693C353.629 35.0693 355.884 35.3086 358.026 35.7871C360.191 36.2656 362.413 37.029 364.691 38.0771L361.547 45.5967C359.656 44.7764 357.867 44.1042 356.181 43.5801C354.517 43.056 352.82 42.7939 351.088 42.7939C349.561 42.7939 348.41 42.999 347.636 43.4092C346.861 43.8193 346.474 44.446 346.474 45.2891C346.474 45.9043 346.667 46.4512 347.055 46.9297C347.465 47.4082 348.24 47.9437 349.379 48.5361C350.541 49.1058 352.239 49.8464 354.472 50.7578C356.636 51.6465 358.516 52.5807 360.111 53.5605C361.706 54.5176 362.937 55.7139 363.803 57.1494C364.669 58.5622 365.102 60.3965 365.102 62.6523Z" fill="black"/>
<path d="M29.5958 82.3975L16.7173 69.519C11.4692 64.271 8.67258 59.4257 8.32731 54.9833C7.95903 50.5639 9.99611 46.133 14.4385 41.6905C17.3618 38.7673 20.4462 36.9489 23.6917 36.2353C26.9142 35.5448 29.8259 36.0857 32.4269 37.8581L32.7722 37.5128C30.6316 33.945 29.9065 30.5499 30.597 27.3274C31.2876 24.1049 33.2556 20.8709 36.5011 17.6254C41.0816 13.0449 45.9039 10.6855 50.9678 10.5474C55.9857 10.4093 60.6238 12.4694 64.882 16.7277L80.0738 31.9195L29.5958 82.3975ZM41.0586 53.257L36.7428 48.9411C34.7633 46.9616 32.8413 46.0984 30.9768 46.3516C29.1124 46.6048 27.1329 47.7787 25.0382 49.8733C22.9436 51.968 21.9078 53.9245 21.9308 55.7429C21.9308 57.5843 22.9206 59.4948 24.9001 61.4743L28.8707 65.4449L41.0586 53.257ZM48.8962 45.4194L63.0176 31.298L58.2874 26.5678C56.3309 24.6113 54.2823 23.7597 52.1417 24.0129C49.978 24.243 47.6417 25.6126 45.1328 28.1215C40.6213 32.633 40.3451 36.8683 44.3041 40.8274L48.8962 45.4194Z" fill="black"/>
<line x1="75.7574" y1="78.2621" x2="101.072" y2="52.9476" stroke="black" stroke-width="12"/>
<line x1="50.7574" y1="78.234" x2="88.5876" y2="40.4038" stroke="black" stroke-width="12"/>
</svg>
